# xmcd
#
# Track frame offsets: 
#        150
#        11110
#        21167
#        32787
#        47975
#        57857
#        70235
#        80772
#        93422
#        103415
#        116485
#        128630
#        137772
#        146480
#        157320
#        167682
#
# Disc length: 2383 seconds
#
# Revision: 0
# Processed by: cddbd v1.4PL0 Copyright (c) Steve Scherf et al.
# Submitted via: ExactAudioCopy v0.90b4
#
DISCID=e7094d10
DTITLE=Rex Allen - Sings 16 Favorite Songs
DYEAR=1900
DGENRE=Country
TTITLE0=Lazy River
TTITLE1=The Little Old Church In The Valley
TTITLE2=I Love You So Much It Hurts
TTITLE3=The Streets Of Laredo
TTITLE4=Gotta Travel On
TTITLE5=I Can't Stop Loving You
TTITLE6=Swamp Fox
TTITLE7=The Lilies Grow High
TTITLE8=Forever And Ever
TTITLE9=Morgen (One More Sunrise)
TTITLE10=Say One For Me
TTITLE11=Pretty Irish Girl
TTITLE12=Who Shot The Hole In My Sombrero
TTITLE13=I'm The Man
TTITLE14=I Couldn't Care Less
TTITLE15=Staying Young
EXTD=
EXTT0=
EXTT1=
EXTT2=
EXTT3=
EXTT4=
EXTT5=
EXTT6=
EXTT7=
EXTT8=
EXTT9=
EXTT10=
EXTT11=
EXTT12=
EXTT13=
EXTT14=
EXTT15=
PLAYORDER=
